<mxfile host="Electron" modified="2023-04-06T16:00:38.759Z" agent="Mozilla/5.0 (Windows NT 10.0; Win64; x64) AppleWebKit/537.36 (KHTML, like Gecko) draw.io/21.1.2 Chrome/106.0.5249.199 Electron/21.4.3 Safari/537.36" etag="tzi-QQDT8s25YZI2MI8e" version="21.1.2" type="device" pages="5">
  <diagram id="pfxA9gv14tCuH7BsV-Ln" name="Adapter">
    <mxGraphModel dx="1235" dy="740" grid="0" gridSize="10" guides="1" tooltips="0" connect="1" arrows="1" fold="1" page="1" pageScale="1" pageWidth="1169" pageHeight="827" math="0" shadow="0">
      <root>
        <mxCell id="t0Gk355Egd2EpJJYX6fK-0" />
        <mxCell id="t0Gk355Egd2EpJJYX6fK-1" parent="t0Gk355Egd2EpJJYX6fK-0" />
        <mxCell id="r9_oYsfu7Edrs36lkvw7-0" value="«interface»&#xa;Target" style="swimlane;fontStyle=1;align=center;verticalAlign=top;childLayout=stackLayout;horizontal=1;startSize=40;horizontalStack=0;resizeParent=1;resizeParentMax=0;resizeLast=0;collapsible=1;marginBottom=0;rounded=0;sketch=1;fillColor=#dae8fc;strokeColor=#6c8ebf;" parent="t0Gk355Egd2EpJJYX6fK-1" vertex="1">
          <mxGeometry x="275" y="100" width="165" height="74" as="geometry">
            <mxRectangle x="250" y="670" width="100" height="30" as="alternateBounds" />
          </mxGeometry>
        </mxCell>
        <mxCell id="r9_oYsfu7Edrs36lkvw7-1" value="" style="line;strokeWidth=1;fillColor=none;align=left;verticalAlign=middle;spacingTop=-1;spacingLeft=3;spacingRight=3;rotatable=0;labelPosition=right;points=[];portConstraint=eastwest;rounded=0;sketch=1;labelBackgroundColor=#EEEEEE;strokeColor=#909090;fontColor=#1A1A1A;" parent="r9_oYsfu7Edrs36lkvw7-0" vertex="1">
          <mxGeometry y="40" width="165" height="8" as="geometry" />
        </mxCell>
        <mxCell id="r9_oYsfu7Edrs36lkvw7-2" value="+ Operation()" style="text;strokeColor=none;fillColor=none;align=left;verticalAlign=top;spacingLeft=4;spacingRight=4;overflow=hidden;rotatable=0;points=[[0,0.5],[1,0.5]];portConstraint=eastwest;rounded=0;sketch=1;fontColor=#1A1A1A;" parent="r9_oYsfu7Edrs36lkvw7-0" vertex="1">
          <mxGeometry y="48" width="165" height="26" as="geometry" />
        </mxCell>
        <mxCell id="r9_oYsfu7Edrs36lkvw7-3" style="edgeStyle=orthogonalEdgeStyle;rounded=0;orthogonalLoop=1;jettySize=auto;html=1;endArrow=block;endFill=0;labelBackgroundColor=#EEEEEE;strokeColor=#182E3E;fontColor=#1A1A1A;" parent="t0Gk355Egd2EpJJYX6fK-1" source="r9_oYsfu7Edrs36lkvw7-4" target="r9_oYsfu7Edrs36lkvw7-0" edge="1">
          <mxGeometry relative="1" as="geometry" />
        </mxCell>
        <mxCell id="V8s5TMU2EH_NeJxdK_gp-17" style="edgeStyle=orthogonalEdgeStyle;rounded=0;orthogonalLoop=1;jettySize=auto;html=1;fontColor=#1A1A1A;strokeColor=#182E3E;endArrow=open;endFill=0;" parent="t0Gk355Egd2EpJJYX6fK-1" source="r9_oYsfu7Edrs36lkvw7-4" target="V8s5TMU2EH_NeJxdK_gp-14" edge="1">
          <mxGeometry relative="1" as="geometry" />
        </mxCell>
        <mxCell id="r9_oYsfu7Edrs36lkvw7-4" value="Adapter" style="swimlane;fontStyle=1;align=center;verticalAlign=top;childLayout=stackLayout;horizontal=1;startSize=26;horizontalStack=0;resizeParent=1;resizeParentMax=0;resizeLast=0;collapsible=1;marginBottom=0;rounded=0;sketch=1;fillColor=#dae8fc;strokeColor=#6c8ebf;" parent="t0Gk355Egd2EpJJYX6fK-1" vertex="1">
          <mxGeometry x="275" y="240" width="165" height="60" as="geometry" />
        </mxCell>
        <mxCell id="r9_oYsfu7Edrs36lkvw7-5" value="" style="line;strokeWidth=1;fillColor=none;align=left;verticalAlign=middle;spacingTop=-1;spacingLeft=3;spacingRight=3;rotatable=0;labelPosition=right;points=[];portConstraint=eastwest;rounded=0;sketch=1;labelBackgroundColor=#EEEEEE;strokeColor=#909090;fontColor=#1A1A1A;" parent="r9_oYsfu7Edrs36lkvw7-4" vertex="1">
          <mxGeometry y="26" width="165" height="8" as="geometry" />
        </mxCell>
        <mxCell id="r9_oYsfu7Edrs36lkvw7-6" value="+ Operation()" style="text;strokeColor=none;fillColor=none;align=left;verticalAlign=top;spacingLeft=4;spacingRight=4;overflow=hidden;rotatable=0;points=[[0,0.5],[1,0.5]];portConstraint=eastwest;rounded=0;sketch=1;fontColor=#1A1A1A;" parent="r9_oYsfu7Edrs36lkvw7-4" vertex="1">
          <mxGeometry y="34" width="165" height="26" as="geometry" />
        </mxCell>
        <mxCell id="r9_oYsfu7Edrs36lkvw7-12" style="edgeStyle=orthogonalEdgeStyle;rounded=0;orthogonalLoop=1;jettySize=auto;html=1;startArrow=none;startFill=0;endArrow=open;endFill=0;labelBackgroundColor=#EEEEEE;strokeColor=#182E3E;fontColor=#1A1A1A;" parent="t0Gk355Egd2EpJJYX6fK-1" source="r9_oYsfu7Edrs36lkvw7-13" target="r9_oYsfu7Edrs36lkvw7-0" edge="1">
          <mxGeometry relative="1" as="geometry" />
        </mxCell>
        <mxCell id="r9_oYsfu7Edrs36lkvw7-13" value="&lt;b&gt;Client&lt;/b&gt;" style="html=1;rounded=0;sketch=1;fillColor=#dae8fc;strokeColor=#6c8ebf;" parent="t0Gk355Egd2EpJJYX6fK-1" vertex="1">
          <mxGeometry x="75" y="112" width="110" height="50" as="geometry" />
        </mxCell>
        <mxCell id="V8s5TMU2EH_NeJxdK_gp-14" value="Adaptee" style="swimlane;fontStyle=1;align=center;verticalAlign=top;childLayout=stackLayout;horizontal=1;startSize=26;horizontalStack=0;resizeParent=1;resizeParentMax=0;resizeLast=0;collapsible=1;marginBottom=0;rounded=0;sketch=1;fillColor=#dae8fc;strokeColor=#6c8ebf;" parent="t0Gk355Egd2EpJJYX6fK-1" vertex="1">
          <mxGeometry x="540" y="240" width="165" height="60" as="geometry" />
        </mxCell>
        <mxCell id="V8s5TMU2EH_NeJxdK_gp-15" value="" style="line;strokeWidth=1;fillColor=none;align=left;verticalAlign=middle;spacingTop=-1;spacingLeft=3;spacingRight=3;rotatable=0;labelPosition=right;points=[];portConstraint=eastwest;rounded=0;sketch=1;labelBackgroundColor=#EEEEEE;strokeColor=#909090;fontColor=#1A1A1A;" parent="V8s5TMU2EH_NeJxdK_gp-14" vertex="1">
          <mxGeometry y="26" width="165" height="8" as="geometry" />
        </mxCell>
        <mxCell id="V8s5TMU2EH_NeJxdK_gp-16" value="+ SpecificOperation()" style="text;strokeColor=none;fillColor=none;align=left;verticalAlign=top;spacingLeft=4;spacingRight=4;overflow=hidden;rotatable=0;points=[[0,0.5],[1,0.5]];portConstraint=eastwest;rounded=0;sketch=1;fontColor=#1A1A1A;" parent="V8s5TMU2EH_NeJxdK_gp-14" vertex="1">
          <mxGeometry y="34" width="165" height="26" as="geometry" />
        </mxCell>
        <mxCell id="V8s5TMU2EH_NeJxdK_gp-18" value="adaptee.SpecificOperation()" style="shape=note;size=15;align=left;spacingLeft=10;html=1;whiteSpace=wrap;rounded=0;sketch=1;strokeColor=#d6b656;fillColor=#fff2cc;" parent="t0Gk355Egd2EpJJYX6fK-1" vertex="1">
          <mxGeometry x="340" y="320" width="190" height="40" as="geometry" />
        </mxCell>
        <mxCell id="V8s5TMU2EH_NeJxdK_gp-19" value="" style="edgeStyle=none;endArrow=none;exitX=0.4;exitY=0;dashed=1;html=1;rounded=1;sketch=1;fontColor=#1A1A1A;strokeColor=#d6b656;curved=0;fillColor=#fff2cc;" parent="t0Gk355Egd2EpJJYX6fK-1" source="V8s5TMU2EH_NeJxdK_gp-18" edge="1">
          <mxGeometry x="1" relative="1" as="geometry">
            <mxPoint x="360" y="290" as="targetPoint" />
          </mxGeometry>
        </mxCell>
      </root>
    </mxGraphModel>
  </diagram>
  <diagram id="CFkx3T3PTNuRlUrd-KWw" name="Composite">
    <mxGraphModel dx="1050" dy="629" grid="1" gridSize="10" guides="1" tooltips="1" connect="1" arrows="1" fold="1" page="1" pageScale="1" pageWidth="1654" pageHeight="1169" background="none" math="0" shadow="0">
      <root>
        <mxCell id="0" />
        <mxCell id="1" parent="0" />
        <mxCell id="BNOG06OLYAFq1OP3cc1Z-1" value="«interface»&#xa;Component" style="swimlane;fontStyle=1;align=center;verticalAlign=top;childLayout=stackLayout;horizontal=1;startSize=40;horizontalStack=0;resizeParent=1;resizeParentMax=0;resizeLast=0;collapsible=1;marginBottom=0;rounded=0;fillColor=#F5AB50;strokeColor=#909090;fontColor=#1A1A1A;sketch=1;curveFitting=1;jiggle=2;" parent="1" vertex="1">
          <mxGeometry x="232" y="360" width="165" height="74" as="geometry">
            <mxRectangle x="250" y="670" width="100" height="30" as="alternateBounds" />
          </mxGeometry>
        </mxCell>
        <mxCell id="BNOG06OLYAFq1OP3cc1Z-3" value="" style="line;strokeWidth=1;fillColor=none;align=left;verticalAlign=middle;spacingTop=-1;spacingLeft=3;spacingRight=3;rotatable=0;labelPosition=right;points=[];portConstraint=eastwest;rounded=0;labelBackgroundColor=#EEEEEE;strokeColor=#909090;fontColor=#1A1A1A;sketch=1;curveFitting=1;jiggle=2;" parent="BNOG06OLYAFq1OP3cc1Z-1" vertex="1">
          <mxGeometry y="40" width="165" height="8" as="geometry" />
        </mxCell>
        <mxCell id="BNOG06OLYAFq1OP3cc1Z-4" value="+ Operation()" style="text;strokeColor=none;fillColor=none;align=left;verticalAlign=top;spacingLeft=4;spacingRight=4;overflow=hidden;rotatable=0;points=[[0,0.5],[1,0.5]];portConstraint=eastwest;rounded=0;fontColor=#1A1A1A;sketch=1;curveFitting=1;jiggle=2;" parent="BNOG06OLYAFq1OP3cc1Z-1" vertex="1">
          <mxGeometry y="48" width="165" height="26" as="geometry" />
        </mxCell>
        <mxCell id="BNOG06OLYAFq1OP3cc1Z-27" style="edgeStyle=orthogonalEdgeStyle;rounded=0;orthogonalLoop=1;jettySize=auto;html=1;endArrow=block;endFill=0;labelBackgroundColor=#EEEEEE;strokeColor=#182E3E;fontColor=#1A1A1A;" parent="1" source="BNOG06OLYAFq1OP3cc1Z-5" target="BNOG06OLYAFq1OP3cc1Z-1" edge="1">
          <mxGeometry relative="1" as="geometry" />
        </mxCell>
        <mxCell id="BNOG06OLYAFq1OP3cc1Z-5" value="Leaf" style="swimlane;fontStyle=1;align=center;verticalAlign=top;childLayout=stackLayout;horizontal=1;startSize=26;horizontalStack=0;resizeParent=1;resizeParentMax=0;resizeLast=0;collapsible=1;marginBottom=0;rounded=0;fillColor=#F5AB50;strokeColor=#909090;fontColor=#1A1A1A;sketch=1;curveFitting=1;jiggle=2;" parent="1" vertex="1">
          <mxGeometry x="112" y="530" width="165" height="60" as="geometry" />
        </mxCell>
        <mxCell id="BNOG06OLYAFq1OP3cc1Z-6" value="" style="line;strokeWidth=1;fillColor=none;align=left;verticalAlign=middle;spacingTop=-1;spacingLeft=3;spacingRight=3;rotatable=0;labelPosition=right;points=[];portConstraint=eastwest;rounded=0;labelBackgroundColor=#EEEEEE;strokeColor=#909090;fontColor=#1A1A1A;sketch=1;curveFitting=1;jiggle=2;" parent="BNOG06OLYAFq1OP3cc1Z-5" vertex="1">
          <mxGeometry y="26" width="165" height="8" as="geometry" />
        </mxCell>
        <mxCell id="BNOG06OLYAFq1OP3cc1Z-7" value="+ Operation()" style="text;strokeColor=none;fillColor=none;align=left;verticalAlign=top;spacingLeft=4;spacingRight=4;overflow=hidden;rotatable=0;points=[[0,0.5],[1,0.5]];portConstraint=eastwest;rounded=0;fontColor=#1A1A1A;sketch=1;curveFitting=1;jiggle=2;" parent="BNOG06OLYAFq1OP3cc1Z-5" vertex="1">
          <mxGeometry y="34" width="165" height="26" as="geometry" />
        </mxCell>
        <mxCell id="BNOG06OLYAFq1OP3cc1Z-28" style="edgeStyle=orthogonalEdgeStyle;rounded=0;orthogonalLoop=1;jettySize=auto;html=1;endArrow=block;endFill=0;labelBackgroundColor=#EEEEEE;strokeColor=#182E3E;fontColor=#1A1A1A;" parent="1" source="BNOG06OLYAFq1OP3cc1Z-24" target="BNOG06OLYAFq1OP3cc1Z-1" edge="1">
          <mxGeometry relative="1" as="geometry" />
        </mxCell>
        <mxCell id="BNOG06OLYAFq1OP3cc1Z-29" style="edgeStyle=orthogonalEdgeStyle;rounded=0;orthogonalLoop=1;jettySize=auto;html=1;entryX=1;entryY=0.5;entryDx=0;entryDy=0;endArrow=open;endFill=0;startArrow=diamondThin;startFill=0;labelBackgroundColor=#EEEEEE;strokeColor=#182E3E;fontColor=#1A1A1A;" parent="1" source="BNOG06OLYAFq1OP3cc1Z-24" target="BNOG06OLYAFq1OP3cc1Z-1" edge="1">
          <mxGeometry relative="1" as="geometry">
            <Array as="points">
              <mxPoint x="542" y="550" />
              <mxPoint x="542" y="397" />
            </Array>
          </mxGeometry>
        </mxCell>
        <mxCell id="BNOG06OLYAFq1OP3cc1Z-24" value="Composite" style="swimlane;fontStyle=1;align=center;verticalAlign=top;childLayout=stackLayout;horizontal=1;startSize=26;horizontalStack=0;resizeParent=1;resizeParentMax=0;resizeLast=0;collapsible=1;marginBottom=0;rounded=0;fillColor=#F5AB50;strokeColor=#909090;fontColor=#1A1A1A;sketch=1;curveFitting=1;jiggle=2;" parent="1" vertex="1">
          <mxGeometry x="352" y="530" width="165" height="60" as="geometry" />
        </mxCell>
        <mxCell id="BNOG06OLYAFq1OP3cc1Z-25" value="" style="line;strokeWidth=1;fillColor=none;align=left;verticalAlign=middle;spacingTop=-1;spacingLeft=3;spacingRight=3;rotatable=0;labelPosition=right;points=[];portConstraint=eastwest;rounded=0;labelBackgroundColor=#EEEEEE;strokeColor=#909090;fontColor=#1A1A1A;sketch=1;curveFitting=1;jiggle=2;" parent="BNOG06OLYAFq1OP3cc1Z-24" vertex="1">
          <mxGeometry y="26" width="165" height="8" as="geometry" />
        </mxCell>
        <mxCell id="BNOG06OLYAFq1OP3cc1Z-26" value="+ Operation()" style="text;strokeColor=none;fillColor=none;align=left;verticalAlign=top;spacingLeft=4;spacingRight=4;overflow=hidden;rotatable=0;points=[[0,0.5],[1,0.5]];portConstraint=eastwest;rounded=0;fontColor=#1A1A1A;sketch=1;curveFitting=1;jiggle=2;" parent="BNOG06OLYAFq1OP3cc1Z-24" vertex="1">
          <mxGeometry y="34" width="165" height="26" as="geometry" />
        </mxCell>
        <mxCell id="BNOG06OLYAFq1OP3cc1Z-31" style="edgeStyle=orthogonalEdgeStyle;rounded=0;orthogonalLoop=1;jettySize=auto;html=1;startArrow=none;startFill=0;endArrow=open;endFill=0;labelBackgroundColor=#EEEEEE;strokeColor=#182E3E;fontColor=#1A1A1A;" parent="1" source="BNOG06OLYAFq1OP3cc1Z-30" target="BNOG06OLYAFq1OP3cc1Z-1" edge="1">
          <mxGeometry relative="1" as="geometry" />
        </mxCell>
        <mxCell id="BNOG06OLYAFq1OP3cc1Z-30" value="Client" style="html=1;rounded=0;fillColor=#F5AB50;strokeColor=#909090;fontColor=#1A1A1A;sketch=1;curveFitting=1;jiggle=2;" parent="1" vertex="1">
          <mxGeometry x="32" y="372" width="110" height="50" as="geometry" />
        </mxCell>
        <mxCell id="BNOG06OLYAFq1OP3cc1Z-33" value="«interface»&#xa;Component" style="swimlane;fontStyle=1;align=center;verticalAlign=top;childLayout=stackLayout;horizontal=1;startSize=40;horizontalStack=0;resizeParent=1;resizeParentMax=0;resizeLast=0;collapsible=1;marginBottom=0;rounded=0;fillColor=#F5AB50;strokeColor=#909090;fontColor=#1A1A1A;sketch=1;curveFitting=1;jiggle=2;" parent="1" vertex="1">
          <mxGeometry x="793" y="291" width="165" height="74" as="geometry">
            <mxRectangle x="250" y="670" width="100" height="30" as="alternateBounds" />
          </mxGeometry>
        </mxCell>
        <mxCell id="BNOG06OLYAFq1OP3cc1Z-34" value="" style="line;strokeWidth=1;fillColor=none;align=left;verticalAlign=middle;spacingTop=-1;spacingLeft=3;spacingRight=3;rotatable=0;labelPosition=right;points=[];portConstraint=eastwest;rounded=0;labelBackgroundColor=#EEEEEE;strokeColor=#909090;fontColor=#1A1A1A;sketch=1;curveFitting=1;jiggle=2;" parent="BNOG06OLYAFq1OP3cc1Z-33" vertex="1">
          <mxGeometry y="40" width="165" height="8" as="geometry" />
        </mxCell>
        <mxCell id="BNOG06OLYAFq1OP3cc1Z-35" value="+ Operation()" style="text;strokeColor=none;fillColor=none;align=left;verticalAlign=top;spacingLeft=4;spacingRight=4;overflow=hidden;rotatable=0;points=[[0,0.5],[1,0.5]];portConstraint=eastwest;rounded=0;fontColor=#1A1A1A;sketch=1;curveFitting=1;jiggle=2;" parent="BNOG06OLYAFq1OP3cc1Z-33" vertex="1">
          <mxGeometry y="48" width="165" height="26" as="geometry" />
        </mxCell>
        <mxCell id="BNOG06OLYAFq1OP3cc1Z-36" style="edgeStyle=orthogonalEdgeStyle;rounded=0;orthogonalLoop=1;jettySize=auto;html=1;endArrow=block;endFill=0;labelBackgroundColor=#EEEEEE;strokeColor=#182E3E;fontColor=#1A1A1A;" parent="1" source="BNOG06OLYAFq1OP3cc1Z-37" target="BNOG06OLYAFq1OP3cc1Z-33" edge="1">
          <mxGeometry relative="1" as="geometry" />
        </mxCell>
        <mxCell id="BNOG06OLYAFq1OP3cc1Z-37" value="Leaf" style="swimlane;fontStyle=1;align=center;verticalAlign=top;childLayout=stackLayout;horizontal=1;startSize=26;horizontalStack=0;resizeParent=1;resizeParentMax=0;resizeLast=0;collapsible=1;marginBottom=0;rounded=0;fillColor=#F5AB50;strokeColor=#909090;fontColor=#1A1A1A;sketch=1;curveFitting=1;jiggle=2;" parent="1" vertex="1">
          <mxGeometry x="673" y="451" width="165" height="60" as="geometry" />
        </mxCell>
        <mxCell id="BNOG06OLYAFq1OP3cc1Z-38" value="" style="line;strokeWidth=1;fillColor=none;align=left;verticalAlign=middle;spacingTop=-1;spacingLeft=3;spacingRight=3;rotatable=0;labelPosition=right;points=[];portConstraint=eastwest;rounded=0;labelBackgroundColor=#EEEEEE;strokeColor=#909090;fontColor=#1A1A1A;sketch=1;curveFitting=1;jiggle=2;" parent="BNOG06OLYAFq1OP3cc1Z-37" vertex="1">
          <mxGeometry y="26" width="165" height="8" as="geometry" />
        </mxCell>
        <mxCell id="BNOG06OLYAFq1OP3cc1Z-39" value="+ Operation()" style="text;strokeColor=none;fillColor=none;align=left;verticalAlign=top;spacingLeft=4;spacingRight=4;overflow=hidden;rotatable=0;points=[[0,0.5],[1,0.5]];portConstraint=eastwest;rounded=0;fontColor=#1A1A1A;sketch=1;curveFitting=1;jiggle=2;" parent="BNOG06OLYAFq1OP3cc1Z-37" vertex="1">
          <mxGeometry y="34" width="165" height="26" as="geometry" />
        </mxCell>
        <mxCell id="BNOG06OLYAFq1OP3cc1Z-40" style="edgeStyle=orthogonalEdgeStyle;rounded=0;orthogonalLoop=1;jettySize=auto;html=1;endArrow=block;endFill=0;labelBackgroundColor=#EEEEEE;strokeColor=#182E3E;fontColor=#1A1A1A;" parent="1" source="BNOG06OLYAFq1OP3cc1Z-42" target="BNOG06OLYAFq1OP3cc1Z-33" edge="1">
          <mxGeometry relative="1" as="geometry" />
        </mxCell>
        <mxCell id="BNOG06OLYAFq1OP3cc1Z-41" style="edgeStyle=orthogonalEdgeStyle;rounded=0;orthogonalLoop=1;jettySize=auto;html=1;entryX=1;entryY=0.5;entryDx=0;entryDy=0;endArrow=open;endFill=0;startArrow=diamondThin;startFill=0;labelBackgroundColor=#EEEEEE;strokeColor=#182E3E;fontColor=#1A1A1A;" parent="1" source="BNOG06OLYAFq1OP3cc1Z-42" target="BNOG06OLYAFq1OP3cc1Z-33" edge="1">
          <mxGeometry relative="1" as="geometry">
            <Array as="points">
              <mxPoint x="1123" y="533" />
              <mxPoint x="1123" y="328" />
            </Array>
          </mxGeometry>
        </mxCell>
        <mxCell id="BNOG06OLYAFq1OP3cc1Z-42" value="Composite" style="swimlane;fontStyle=1;align=center;verticalAlign=top;childLayout=stackLayout;horizontal=1;startSize=26;horizontalStack=0;resizeParent=1;resizeParentMax=0;resizeLast=0;collapsible=1;marginBottom=0;rounded=0;fillColor=#F5AB50;strokeColor=#909090;fontColor=#1A1A1A;sketch=1;curveFitting=1;jiggle=2;" parent="1" vertex="1">
          <mxGeometry x="913" y="451" width="165" height="164" as="geometry" />
        </mxCell>
        <mxCell id="BNOG06OLYAFq1OP3cc1Z-51" value="- _children: Component[]" style="text;strokeColor=none;fillColor=none;align=left;verticalAlign=top;spacingLeft=4;spacingRight=4;overflow=hidden;rotatable=0;points=[[0,0.5],[1,0.5]];portConstraint=eastwest;rounded=0;fontColor=#1A1A1A;sketch=1;curveFitting=1;jiggle=2;" parent="BNOG06OLYAFq1OP3cc1Z-42" vertex="1">
          <mxGeometry y="26" width="165" height="26" as="geometry" />
        </mxCell>
        <mxCell id="BNOG06OLYAFq1OP3cc1Z-43" value="" style="line;strokeWidth=1;fillColor=none;align=left;verticalAlign=middle;spacingTop=-1;spacingLeft=3;spacingRight=3;rotatable=0;labelPosition=right;points=[];portConstraint=eastwest;rounded=0;labelBackgroundColor=#EEEEEE;strokeColor=#909090;fontColor=#1A1A1A;" parent="BNOG06OLYAFq1OP3cc1Z-42" vertex="1">
          <mxGeometry y="52" width="165" height="8" as="geometry" />
        </mxCell>
        <mxCell id="BNOG06OLYAFq1OP3cc1Z-47" value="+ Add(Component child)" style="text;strokeColor=none;fillColor=none;align=left;verticalAlign=top;spacingLeft=4;spacingRight=4;overflow=hidden;rotatable=0;points=[[0,0.5],[1,0.5]];portConstraint=eastwest;rounded=0;fontColor=#1A1A1A;sketch=1;curveFitting=1;jiggle=2;" parent="BNOG06OLYAFq1OP3cc1Z-42" vertex="1">
          <mxGeometry y="60" width="165" height="26" as="geometry" />
        </mxCell>
        <mxCell id="BNOG06OLYAFq1OP3cc1Z-48" value="+ Remove(Component child)" style="text;strokeColor=none;fillColor=none;align=left;verticalAlign=top;spacingLeft=4;spacingRight=4;overflow=hidden;rotatable=0;points=[[0,0.5],[1,0.5]];portConstraint=eastwest;rounded=0;fontColor=#1A1A1A;sketch=1;curveFitting=1;jiggle=2;" parent="BNOG06OLYAFq1OP3cc1Z-42" vertex="1">
          <mxGeometry y="86" width="165" height="26" as="geometry" />
        </mxCell>
        <mxCell id="BNOG06OLYAFq1OP3cc1Z-49" value="+ GetChild(): Component" style="text;strokeColor=none;fillColor=none;align=left;verticalAlign=top;spacingLeft=4;spacingRight=4;overflow=hidden;rotatable=0;points=[[0,0.5],[1,0.5]];portConstraint=eastwest;rounded=0;fontColor=#1A1A1A;sketch=1;curveFitting=1;jiggle=2;" parent="BNOG06OLYAFq1OP3cc1Z-42" vertex="1">
          <mxGeometry y="112" width="165" height="26" as="geometry" />
        </mxCell>
        <mxCell id="BNOG06OLYAFq1OP3cc1Z-44" value="+ Operation()" style="text;strokeColor=none;fillColor=none;align=left;verticalAlign=top;spacingLeft=4;spacingRight=4;overflow=hidden;rotatable=0;points=[[0,0.5],[1,0.5]];portConstraint=eastwest;rounded=0;fontColor=#1A1A1A;sketch=1;curveFitting=1;jiggle=2;" parent="BNOG06OLYAFq1OP3cc1Z-42" vertex="1">
          <mxGeometry y="138" width="165" height="26" as="geometry" />
        </mxCell>
        <mxCell id="BNOG06OLYAFq1OP3cc1Z-45" style="edgeStyle=orthogonalEdgeStyle;rounded=0;orthogonalLoop=1;jettySize=auto;html=1;startArrow=none;startFill=0;endArrow=open;endFill=0;labelBackgroundColor=#EEEEEE;strokeColor=#182E3E;fontColor=#1A1A1A;" parent="1" source="BNOG06OLYAFq1OP3cc1Z-46" target="BNOG06OLYAFq1OP3cc1Z-33" edge="1">
          <mxGeometry relative="1" as="geometry" />
        </mxCell>
        <mxCell id="BNOG06OLYAFq1OP3cc1Z-46" value="Client" style="html=1;rounded=0;fillColor=#F5AB50;strokeColor=#909090;fontColor=#1A1A1A;sketch=1;curveFitting=1;jiggle=2;" parent="1" vertex="1">
          <mxGeometry x="603" y="303" width="110" height="50" as="geometry" />
        </mxCell>
        <mxCell id="BNOG06OLYAFq1OP3cc1Z-52" value="«interface»&#xa;Component" style="swimlane;fontStyle=1;align=center;verticalAlign=top;childLayout=stackLayout;horizontal=1;startSize=40;horizontalStack=0;resizeParent=1;resizeParentMax=0;resizeLast=0;collapsible=1;marginBottom=0;rounded=0;fillColor=#F5AB50;strokeColor=#909090;fontColor=#1A1A1A;sketch=1;curveFitting=1;jiggle=2;" parent="1" vertex="1">
          <mxGeometry x="1300" y="696" width="165" height="152" as="geometry">
            <mxRectangle x="250" y="670" width="100" height="30" as="alternateBounds" />
          </mxGeometry>
        </mxCell>
        <mxCell id="BNOG06OLYAFq1OP3cc1Z-53" value="" style="line;strokeWidth=1;fillColor=none;align=left;verticalAlign=middle;spacingTop=-1;spacingLeft=3;spacingRight=3;rotatable=0;labelPosition=right;points=[];portConstraint=eastwest;rounded=0;labelBackgroundColor=#EEEEEE;strokeColor=#909090;fontColor=#1A1A1A;sketch=1;curveFitting=1;jiggle=2;" parent="BNOG06OLYAFq1OP3cc1Z-52" vertex="1">
          <mxGeometry y="40" width="165" height="8" as="geometry" />
        </mxCell>
        <mxCell id="BNOG06OLYAFq1OP3cc1Z-68" value="+ GetChild(): Component" style="text;strokeColor=none;fillColor=none;align=left;verticalAlign=top;spacingLeft=4;spacingRight=4;overflow=hidden;rotatable=0;points=[[0,0.5],[1,0.5]];portConstraint=eastwest;rounded=0;fontColor=#1A1A1A;sketch=1;curveFitting=1;jiggle=2;" parent="BNOG06OLYAFq1OP3cc1Z-52" vertex="1">
          <mxGeometry y="48" width="165" height="26" as="geometry" />
        </mxCell>
        <mxCell id="BNOG06OLYAFq1OP3cc1Z-67" value="+ Remove(Component child)" style="text;strokeColor=none;fillColor=none;align=left;verticalAlign=top;spacingLeft=4;spacingRight=4;overflow=hidden;rotatable=0;points=[[0,0.5],[1,0.5]];portConstraint=eastwest;rounded=0;fontColor=#1A1A1A;sketch=1;curveFitting=1;jiggle=2;" parent="BNOG06OLYAFq1OP3cc1Z-52" vertex="1">
          <mxGeometry y="74" width="165" height="26" as="geometry" />
        </mxCell>
        <mxCell id="BNOG06OLYAFq1OP3cc1Z-66" value="+ Add(Component child)" style="text;strokeColor=none;fillColor=none;align=left;verticalAlign=top;spacingLeft=4;spacingRight=4;overflow=hidden;rotatable=0;points=[[0,0.5],[1,0.5]];portConstraint=eastwest;rounded=0;fontColor=#1A1A1A;sketch=1;curveFitting=1;jiggle=2;" parent="BNOG06OLYAFq1OP3cc1Z-52" vertex="1">
          <mxGeometry y="100" width="165" height="26" as="geometry" />
        </mxCell>
        <mxCell id="BNOG06OLYAFq1OP3cc1Z-54" value="+ Operation()" style="text;strokeColor=none;fillColor=none;align=left;verticalAlign=top;spacingLeft=4;spacingRight=4;overflow=hidden;rotatable=0;points=[[0,0.5],[1,0.5]];portConstraint=eastwest;rounded=0;fontColor=#1A1A1A;sketch=1;curveFitting=1;jiggle=2;" parent="BNOG06OLYAFq1OP3cc1Z-52" vertex="1">
          <mxGeometry y="126" width="165" height="26" as="geometry" />
        </mxCell>
        <mxCell id="BNOG06OLYAFq1OP3cc1Z-55" style="edgeStyle=orthogonalEdgeStyle;rounded=0;orthogonalLoop=1;jettySize=auto;html=1;endArrow=block;endFill=0;labelBackgroundColor=#EEEEEE;strokeColor=#182E3E;fontColor=#1A1A1A;" parent="1" source="BNOG06OLYAFq1OP3cc1Z-56" target="BNOG06OLYAFq1OP3cc1Z-52" edge="1">
          <mxGeometry relative="1" as="geometry" />
        </mxCell>
        <mxCell id="BNOG06OLYAFq1OP3cc1Z-56" value="Leaf" style="swimlane;fontStyle=1;align=center;verticalAlign=top;childLayout=stackLayout;horizontal=1;startSize=26;horizontalStack=0;resizeParent=1;resizeParentMax=0;resizeLast=0;collapsible=1;marginBottom=0;rounded=0;fillColor=#F5AB50;strokeColor=#909090;fontColor=#1A1A1A;sketch=1;curveFitting=1;jiggle=2;" parent="1" vertex="1">
          <mxGeometry x="1180" y="926" width="165" height="60" as="geometry" />
        </mxCell>
        <mxCell id="BNOG06OLYAFq1OP3cc1Z-57" value="" style="line;strokeWidth=1;fillColor=none;align=left;verticalAlign=middle;spacingTop=-1;spacingLeft=3;spacingRight=3;rotatable=0;labelPosition=right;points=[];portConstraint=eastwest;rounded=0;labelBackgroundColor=#EEEEEE;strokeColor=#909090;fontColor=#1A1A1A;sketch=1;curveFitting=1;jiggle=2;" parent="BNOG06OLYAFq1OP3cc1Z-56" vertex="1">
          <mxGeometry y="26" width="165" height="8" as="geometry" />
        </mxCell>
        <mxCell id="BNOG06OLYAFq1OP3cc1Z-58" value="+ Operation()" style="text;strokeColor=none;fillColor=none;align=left;verticalAlign=top;spacingLeft=4;spacingRight=4;overflow=hidden;rotatable=0;points=[[0,0.5],[1,0.5]];portConstraint=eastwest;rounded=0;fontColor=#1A1A1A;sketch=1;curveFitting=1;jiggle=2;" parent="BNOG06OLYAFq1OP3cc1Z-56" vertex="1">
          <mxGeometry y="34" width="165" height="26" as="geometry" />
        </mxCell>
        <mxCell id="BNOG06OLYAFq1OP3cc1Z-59" style="edgeStyle=orthogonalEdgeStyle;rounded=0;orthogonalLoop=1;jettySize=auto;html=1;endArrow=block;endFill=0;labelBackgroundColor=#EEEEEE;strokeColor=#182E3E;fontColor=#1A1A1A;" parent="1" source="BNOG06OLYAFq1OP3cc1Z-61" target="BNOG06OLYAFq1OP3cc1Z-52" edge="1">
          <mxGeometry relative="1" as="geometry" />
        </mxCell>
        <mxCell id="BNOG06OLYAFq1OP3cc1Z-60" style="edgeStyle=orthogonalEdgeStyle;rounded=0;orthogonalLoop=1;jettySize=auto;html=1;entryX=1;entryY=0.5;entryDx=0;entryDy=0;endArrow=open;endFill=0;startArrow=diamondThin;startFill=0;labelBackgroundColor=#EEEEEE;strokeColor=#182E3E;fontColor=#1A1A1A;" parent="1" source="BNOG06OLYAFq1OP3cc1Z-61" target="BNOG06OLYAFq1OP3cc1Z-52" edge="1">
          <mxGeometry relative="1" as="geometry">
            <Array as="points">
              <mxPoint x="1620" y="995" />
              <mxPoint x="1620" y="772" />
            </Array>
          </mxGeometry>
        </mxCell>
        <mxCell id="BNOG06OLYAFq1OP3cc1Z-61" value="Composite" style="swimlane;fontStyle=1;align=center;verticalAlign=top;childLayout=stackLayout;horizontal=1;startSize=26;horizontalStack=0;resizeParent=1;resizeParentMax=0;resizeLast=0;collapsible=1;marginBottom=0;rounded=0;fillColor=#F5AB50;strokeColor=#909090;fontColor=#1A1A1A;sketch=1;curveFitting=1;jiggle=2;" parent="1" vertex="1">
          <mxGeometry x="1420" y="926" width="165" height="138" as="geometry" />
        </mxCell>
        <mxCell id="BNOG06OLYAFq1OP3cc1Z-69" value="+ Add(Component child)" style="text;strokeColor=none;fillColor=none;align=left;verticalAlign=top;spacingLeft=4;spacingRight=4;overflow=hidden;rotatable=0;points=[[0,0.5],[1,0.5]];portConstraint=eastwest;rounded=0;fontColor=#1A1A1A;sketch=1;curveFitting=1;jiggle=2;" parent="BNOG06OLYAFq1OP3cc1Z-61" vertex="1">
          <mxGeometry y="26" width="165" height="26" as="geometry" />
        </mxCell>
        <mxCell id="BNOG06OLYAFq1OP3cc1Z-71" value="+ GetChild(): Component" style="text;strokeColor=none;fillColor=none;align=left;verticalAlign=top;spacingLeft=4;spacingRight=4;overflow=hidden;rotatable=0;points=[[0,0.5],[1,0.5]];portConstraint=eastwest;rounded=0;fontColor=#1A1A1A;sketch=1;curveFitting=1;jiggle=2;" parent="BNOG06OLYAFq1OP3cc1Z-61" vertex="1">
          <mxGeometry y="52" width="165" height="26" as="geometry" />
        </mxCell>
        <mxCell id="BNOG06OLYAFq1OP3cc1Z-70" value="+ Remove(Component child)" style="text;strokeColor=none;fillColor=none;align=left;verticalAlign=top;spacingLeft=4;spacingRight=4;overflow=hidden;rotatable=0;points=[[0,0.5],[1,0.5]];portConstraint=eastwest;rounded=0;fontColor=#1A1A1A;sketch=1;curveFitting=1;jiggle=2;" parent="BNOG06OLYAFq1OP3cc1Z-61" vertex="1">
          <mxGeometry y="78" width="165" height="26" as="geometry" />
        </mxCell>
        <mxCell id="BNOG06OLYAFq1OP3cc1Z-62" value="" style="line;strokeWidth=1;fillColor=none;align=left;verticalAlign=middle;spacingTop=-1;spacingLeft=3;spacingRight=3;rotatable=0;labelPosition=right;points=[];portConstraint=eastwest;rounded=0;labelBackgroundColor=#EEEEEE;strokeColor=#909090;fontColor=#1A1A1A;sketch=1;curveFitting=1;jiggle=2;" parent="BNOG06OLYAFq1OP3cc1Z-61" vertex="1">
          <mxGeometry y="104" width="165" height="8" as="geometry" />
        </mxCell>
        <mxCell id="BNOG06OLYAFq1OP3cc1Z-63" value="+ Operation()" style="text;strokeColor=none;fillColor=none;align=left;verticalAlign=top;spacingLeft=4;spacingRight=4;overflow=hidden;rotatable=0;points=[[0,0.5],[1,0.5]];portConstraint=eastwest;rounded=0;fontColor=#1A1A1A;sketch=1;curveFitting=1;jiggle=2;" parent="BNOG06OLYAFq1OP3cc1Z-61" vertex="1">
          <mxGeometry y="112" width="165" height="26" as="geometry" />
        </mxCell>
        <mxCell id="BNOG06OLYAFq1OP3cc1Z-64" style="edgeStyle=orthogonalEdgeStyle;rounded=0;orthogonalLoop=1;jettySize=auto;html=1;startArrow=none;startFill=0;endArrow=open;endFill=0;labelBackgroundColor=#EEEEEE;strokeColor=#182E3E;fontColor=#1A1A1A;" parent="1" source="BNOG06OLYAFq1OP3cc1Z-65" target="BNOG06OLYAFq1OP3cc1Z-52" edge="1">
          <mxGeometry relative="1" as="geometry" />
        </mxCell>
        <mxCell id="BNOG06OLYAFq1OP3cc1Z-65" value="Client" style="html=1;rounded=0;fillColor=#F5AB50;strokeColor=#909090;fontColor=#1A1A1A;sketch=1;curveFitting=1;jiggle=2;" parent="1" vertex="1">
          <mxGeometry x="1110" y="747" width="110" height="50" as="geometry" />
        </mxCell>
      </root>
    </mxGraphModel>
  </diagram>
  <diagram id="0hrxTNzccrfhBCuLjd9K" name="Strategy">
    <mxGraphModel dx="1050" dy="629" grid="1" gridSize="10" guides="1" tooltips="1" connect="1" arrows="1" fold="1" page="1" pageScale="1" pageWidth="1169" pageHeight="827" math="0" shadow="0">
      <root>
        <mxCell id="Yq5xRgmWrB6RlAjooAV_-0" />
        <mxCell id="Yq5xRgmWrB6RlAjooAV_-1" parent="Yq5xRgmWrB6RlAjooAV_-0" />
      </root>
    </mxGraphModel>
  </diagram>
  <diagram id="zWnYbkroHUDhtVZg8e_o" name="Proxy">
    <mxGraphModel dx="2219" dy="629" grid="1" gridSize="10" guides="1" tooltips="1" connect="1" arrows="1" fold="1" page="1" pageScale="1" pageWidth="1169" pageHeight="827" math="0" shadow="0">
      <root>
        <mxCell id="0" />
        <mxCell id="1" parent="0" />
        <mxCell id="bJq0gvxn55feJPTDZ4S--1" value="«interface»&#xa;Subject" style="swimlane;fontStyle=1;align=center;verticalAlign=top;childLayout=stackLayout;horizontal=1;startSize=40;horizontalStack=0;resizeParent=1;resizeParentMax=0;resizeLast=0;collapsible=1;marginBottom=0;rounded=0;sketch=1;fillColor=#F5AB50;strokeColor=#909090;fontColor=#1A1A1A;" parent="1" vertex="1">
          <mxGeometry x="-720" y="150" width="165" height="74" as="geometry">
            <mxRectangle x="250" y="670" width="100" height="30" as="alternateBounds" />
          </mxGeometry>
        </mxCell>
        <mxCell id="bJq0gvxn55feJPTDZ4S--2" value="" style="line;strokeWidth=1;fillColor=none;align=left;verticalAlign=middle;spacingTop=-1;spacingLeft=3;spacingRight=3;rotatable=0;labelPosition=right;points=[];portConstraint=eastwest;rounded=0;sketch=1;labelBackgroundColor=#EEEEEE;strokeColor=#909090;fontColor=#1A1A1A;" parent="bJq0gvxn55feJPTDZ4S--1" vertex="1">
          <mxGeometry y="40" width="165" height="8" as="geometry" />
        </mxCell>
        <mxCell id="bJq0gvxn55feJPTDZ4S--3" value="+ Operation()" style="text;strokeColor=none;fillColor=none;align=left;verticalAlign=top;spacingLeft=4;spacingRight=4;overflow=hidden;rotatable=0;points=[[0,0.5],[1,0.5]];portConstraint=eastwest;rounded=0;sketch=1;fontColor=#1A1A1A;" parent="bJq0gvxn55feJPTDZ4S--1" vertex="1">
          <mxGeometry y="48" width="165" height="26" as="geometry" />
        </mxCell>
        <mxCell id="bJq0gvxn55feJPTDZ4S--4" style="edgeStyle=orthogonalEdgeStyle;rounded=0;orthogonalLoop=1;jettySize=auto;html=1;endArrow=block;endFill=0;labelBackgroundColor=#EEEEEE;strokeColor=#182E3E;fontColor=#1A1A1A;" parent="1" source="bJq0gvxn55feJPTDZ4S--5" target="bJq0gvxn55feJPTDZ4S--1" edge="1">
          <mxGeometry relative="1" as="geometry" />
        </mxCell>
        <mxCell id="zE3TSSOudIvQtrCk9SOY-6" style="edgeStyle=orthogonalEdgeStyle;rounded=0;orthogonalLoop=1;jettySize=auto;html=1;fontSize=12;startSize=8;endSize=8;endArrow=open;endFill=0;" parent="1" source="bJq0gvxn55feJPTDZ4S--5" target="zE3TSSOudIvQtrCk9SOY-1" edge="1">
          <mxGeometry relative="1" as="geometry" />
        </mxCell>
        <mxCell id="bJq0gvxn55feJPTDZ4S--5" value="Proxy" style="swimlane;fontStyle=1;align=center;verticalAlign=top;childLayout=stackLayout;horizontal=1;startSize=26;horizontalStack=0;resizeParent=1;resizeParentMax=0;resizeLast=0;collapsible=1;marginBottom=0;rounded=0;sketch=1;fillColor=#F5AB50;strokeColor=#909090;fontColor=#1A1A1A;" parent="1" vertex="1">
          <mxGeometry x="-840" y="310" width="165" height="60" as="geometry" />
        </mxCell>
        <mxCell id="bJq0gvxn55feJPTDZ4S--6" value="" style="line;strokeWidth=1;fillColor=none;align=left;verticalAlign=middle;spacingTop=-1;spacingLeft=3;spacingRight=3;rotatable=0;labelPosition=right;points=[];portConstraint=eastwest;rounded=0;sketch=1;labelBackgroundColor=#EEEEEE;strokeColor=#909090;fontColor=#1A1A1A;" parent="bJq0gvxn55feJPTDZ4S--5" vertex="1">
          <mxGeometry y="26" width="165" height="8" as="geometry" />
        </mxCell>
        <mxCell id="bJq0gvxn55feJPTDZ4S--7" value="+ Operation()" style="text;strokeColor=none;fillColor=none;align=left;verticalAlign=top;spacingLeft=4;spacingRight=4;overflow=hidden;rotatable=0;points=[[0,0.5],[1,0.5]];portConstraint=eastwest;rounded=0;sketch=1;fontColor=#1A1A1A;" parent="bJq0gvxn55feJPTDZ4S--5" vertex="1">
          <mxGeometry y="34" width="165" height="26" as="geometry" />
        </mxCell>
        <mxCell id="bJq0gvxn55feJPTDZ4S--17" style="edgeStyle=orthogonalEdgeStyle;rounded=0;orthogonalLoop=1;jettySize=auto;html=1;startArrow=none;startFill=0;endArrow=open;endFill=0;labelBackgroundColor=#EEEEEE;strokeColor=#182E3E;fontColor=#1A1A1A;" parent="1" source="bJq0gvxn55feJPTDZ4S--18" target="bJq0gvxn55feJPTDZ4S--1" edge="1">
          <mxGeometry relative="1" as="geometry" />
        </mxCell>
        <mxCell id="bJq0gvxn55feJPTDZ4S--18" value="Client" style="html=1;rounded=0;sketch=1;fillColor=#F5AB50;strokeColor=#909090;fontColor=#1A1A1A;" parent="1" vertex="1">
          <mxGeometry x="-910" y="162" width="110" height="50" as="geometry" />
        </mxCell>
        <mxCell id="zE3TSSOudIvQtrCk9SOY-5" style="edgeStyle=orthogonalEdgeStyle;rounded=0;orthogonalLoop=1;jettySize=auto;html=1;fontSize=11;startSize=8;endSize=8;labelBackgroundColor=#EEEEEE;endArrow=block;strokeColor=#182E3E;fontColor=#1A1A1A;endFill=0;" parent="1" source="zE3TSSOudIvQtrCk9SOY-1" target="bJq0gvxn55feJPTDZ4S--1" edge="1">
          <mxGeometry relative="1" as="geometry" />
        </mxCell>
        <mxCell id="zE3TSSOudIvQtrCk9SOY-1" value="RealSubject" style="swimlane;fontStyle=1;align=center;verticalAlign=top;childLayout=stackLayout;horizontal=1;startSize=26;horizontalStack=0;resizeParent=1;resizeParentMax=0;resizeLast=0;collapsible=1;marginBottom=0;rounded=0;sketch=1;fillColor=#F5AB50;strokeColor=#909090;fontColor=#1A1A1A;" parent="1" vertex="1">
          <mxGeometry x="-600" y="310" width="165" height="60" as="geometry" />
        </mxCell>
        <mxCell id="zE3TSSOudIvQtrCk9SOY-2" value="" style="line;strokeWidth=1;fillColor=none;align=left;verticalAlign=middle;spacingTop=-1;spacingLeft=3;spacingRight=3;rotatable=0;labelPosition=right;points=[];portConstraint=eastwest;rounded=0;sketch=1;labelBackgroundColor=#EEEEEE;strokeColor=#909090;fontColor=#1A1A1A;" parent="zE3TSSOudIvQtrCk9SOY-1" vertex="1">
          <mxGeometry y="26" width="165" height="8" as="geometry" />
        </mxCell>
        <mxCell id="zE3TSSOudIvQtrCk9SOY-3" value="+ Operation()" style="text;strokeColor=none;fillColor=none;align=left;verticalAlign=top;spacingLeft=4;spacingRight=4;overflow=hidden;rotatable=0;points=[[0,0.5],[1,0.5]];portConstraint=eastwest;rounded=0;sketch=1;fontColor=#1A1A1A;" parent="zE3TSSOudIvQtrCk9SOY-1" vertex="1">
          <mxGeometry y="34" width="165" height="26" as="geometry" />
        </mxCell>
      </root>
    </mxGraphModel>
  </diagram>
  <diagram id="FnoLo6uCfzN_WaeMd2eJ" name="Decorator">
    <mxGraphModel dx="1195" dy="703" grid="0" gridSize="10" guides="1" tooltips="1" connect="1" arrows="1" fold="1" page="1" pageScale="1" pageWidth="1169" pageHeight="827" math="0" shadow="0">
      <root>
        <mxCell id="0" />
        <mxCell id="1" parent="0" />
        <mxCell id="rLRFaC7Z4CtTyHRnIzG0-1" value="«interface»&#xa;Component" style="swimlane;fontStyle=1;align=center;verticalAlign=top;childLayout=stackLayout;horizontal=1;startSize=40;horizontalStack=0;resizeParent=1;resizeParentMax=0;resizeLast=0;collapsible=1;marginBottom=0;rounded=0;sketch=1;fillColor=#dae8fc;strokeColor=#6c8ebf;fontColor=default;" parent="1" vertex="1">
          <mxGeometry x="140" y="176.66" width="165" height="74" as="geometry" />
        </mxCell>
        <mxCell id="rLRFaC7Z4CtTyHRnIzG0-2" value="" style="line;strokeWidth=1;fillColor=none;align=left;verticalAlign=middle;spacingTop=-1;spacingLeft=3;spacingRight=3;rotatable=0;labelPosition=right;points=[];portConstraint=eastwest;rounded=0;sketch=1;labelBackgroundColor=#EEEEEE;strokeColor=#909090;fontColor=#1A1A1A;" parent="rLRFaC7Z4CtTyHRnIzG0-1" vertex="1">
          <mxGeometry y="40" width="165" height="8" as="geometry" />
        </mxCell>
        <mxCell id="rLRFaC7Z4CtTyHRnIzG0-3" value="+ Operation()" style="text;strokeColor=none;fillColor=none;align=left;verticalAlign=top;spacingLeft=4;spacingRight=4;overflow=hidden;rotatable=0;points=[[0,0.5],[1,0.5]];portConstraint=eastwest;rounded=0;sketch=1;fontColor=#1A1A1A;" parent="rLRFaC7Z4CtTyHRnIzG0-1" vertex="1">
          <mxGeometry y="48" width="165" height="26" as="geometry" />
        </mxCell>
        <mxCell id="gt-Dnx5REntbQfCuhK5w-18" style="edgeStyle=orthogonalEdgeStyle;rounded=0;hachureGap=4;orthogonalLoop=1;jettySize=auto;html=1;fontFamily=Architects Daughter;fontSource=https%3A%2F%2Ffonts.googleapis.com%2Fcss%3Ffamily%3DArchitects%2BDaughter;fontSize=16;startSize=8;endSize=8;endArrow=block;endFill=0;" parent="1" source="gt-Dnx5REntbQfCuhK5w-1" target="rLRFaC7Z4CtTyHRnIzG0-1" edge="1">
          <mxGeometry relative="1" as="geometry" />
        </mxCell>
        <mxCell id="gt-Dnx5REntbQfCuhK5w-1" value="ConcreteComponent" style="swimlane;fontStyle=1;align=center;verticalAlign=top;childLayout=stackLayout;horizontal=1;startSize=26;horizontalStack=0;resizeParent=1;resizeParentMax=0;resizeLast=0;collapsible=1;marginBottom=0;rounded=0;sketch=1;fillColor=#dae8fc;strokeColor=#6c8ebf;fontColor=default;" parent="1" vertex="1">
          <mxGeometry x="20" y="316.65999999999997" width="165" height="60" as="geometry" />
        </mxCell>
        <mxCell id="gt-Dnx5REntbQfCuhK5w-2" value="" style="line;strokeWidth=1;fillColor=none;align=left;verticalAlign=middle;spacingTop=-1;spacingLeft=3;spacingRight=3;rotatable=0;labelPosition=right;points=[];portConstraint=eastwest;rounded=0;sketch=1;labelBackgroundColor=#EEEEEE;strokeColor=#909090;fontColor=#1A1A1A;" parent="gt-Dnx5REntbQfCuhK5w-1" vertex="1">
          <mxGeometry y="26" width="165" height="8" as="geometry" />
        </mxCell>
        <mxCell id="gt-Dnx5REntbQfCuhK5w-3" value="+ Operation()" style="text;strokeColor=none;fillColor=none;align=left;verticalAlign=top;spacingLeft=4;spacingRight=4;overflow=hidden;rotatable=0;points=[[0,0.5],[1,0.5]];portConstraint=eastwest;rounded=0;sketch=1;fontColor=#1A1A1A;" parent="gt-Dnx5REntbQfCuhK5w-1" vertex="1">
          <mxGeometry y="34" width="165" height="26" as="geometry" />
        </mxCell>
        <mxCell id="gt-Dnx5REntbQfCuhK5w-19" style="edgeStyle=orthogonalEdgeStyle;rounded=0;hachureGap=4;orthogonalLoop=1;jettySize=auto;html=1;fontFamily=Architects Daughter;fontSource=https%3A%2F%2Ffonts.googleapis.com%2Fcss%3Ffamily%3DArchitects%2BDaughter;fontSize=16;startSize=8;endSize=8;endArrow=block;endFill=0;" parent="1" source="gt-Dnx5REntbQfCuhK5w-4" target="rLRFaC7Z4CtTyHRnIzG0-1" edge="1">
          <mxGeometry relative="1" as="geometry" />
        </mxCell>
        <mxCell id="zJStZnbewwpVjUM_0HMp-3" style="edgeStyle=orthogonalEdgeStyle;rounded=0;hachureGap=4;orthogonalLoop=1;jettySize=auto;html=1;fontFamily=Architects Daughter;fontSource=https%3A%2F%2Ffonts.googleapis.com%2Fcss%3Ffamily%3DArchitects%2BDaughter;fontSize=16;startSize=8;endSize=8;entryX=1.012;entryY=-0.154;entryDx=0;entryDy=0;startArrow=diamondThin;startFill=0;endArrow=open;endFill=0;entryPerimeter=0;" parent="1" source="gt-Dnx5REntbQfCuhK5w-4" target="rLRFaC7Z4CtTyHRnIzG0-3" edge="1">
          <mxGeometry relative="1" as="geometry">
            <mxPoint x="590" y="196.66" as="targetPoint" />
            <Array as="points">
              <mxPoint x="460" y="363.65999999999997" />
              <mxPoint x="460" y="220.66" />
            </Array>
          </mxGeometry>
        </mxCell>
        <mxCell id="gt-Dnx5REntbQfCuhK5w-4" value="Decorator" style="swimlane;fontStyle=1;align=center;verticalAlign=top;childLayout=stackLayout;horizontal=1;startSize=26;horizontalStack=0;resizeParent=1;resizeParentMax=0;resizeLast=0;collapsible=1;marginBottom=0;rounded=0;sketch=1;fillColor=#dae8fc;strokeColor=#6c8ebf;fontColor=default;" parent="1" vertex="1">
          <mxGeometry x="260" y="316.65999999999997" width="165" height="94" as="geometry" />
        </mxCell>
        <mxCell id="gt-Dnx5REntbQfCuhK5w-5" value="" style="line;strokeWidth=1;fillColor=none;align=left;verticalAlign=middle;spacingTop=-1;spacingLeft=3;spacingRight=3;rotatable=0;labelPosition=right;points=[];portConstraint=eastwest;rounded=0;sketch=1;labelBackgroundColor=#EEEEEE;strokeColor=#909090;fontColor=#1A1A1A;" parent="gt-Dnx5REntbQfCuhK5w-4" vertex="1">
          <mxGeometry y="26" width="165" height="8" as="geometry" />
        </mxCell>
        <mxCell id="gt-Dnx5REntbQfCuhK5w-10" value="# _component: Component" style="text;strokeColor=none;fillColor=none;align=left;verticalAlign=top;spacingLeft=4;spacingRight=4;overflow=hidden;rotatable=0;points=[[0,0.5],[1,0.5]];portConstraint=eastwest;rounded=0;sketch=1;fontColor=#1A1A1A;" parent="gt-Dnx5REntbQfCuhK5w-4" vertex="1">
          <mxGeometry y="34" width="165" height="26" as="geometry" />
        </mxCell>
        <mxCell id="5phRxFwSdP2C5v7AHUtI-1" value="" style="line;strokeWidth=1;fillColor=none;align=left;verticalAlign=middle;spacingTop=-1;spacingLeft=3;spacingRight=3;rotatable=0;labelPosition=right;points=[];portConstraint=eastwest;rounded=0;labelBackgroundColor=#EEEEEE;strokeColor=#909090;fontColor=#1A1A1A;" vertex="1" parent="gt-Dnx5REntbQfCuhK5w-4">
          <mxGeometry y="60" width="165" height="8" as="geometry" />
        </mxCell>
        <mxCell id="gt-Dnx5REntbQfCuhK5w-6" value="+ Operation()" style="text;strokeColor=none;fillColor=none;align=left;verticalAlign=top;spacingLeft=4;spacingRight=4;overflow=hidden;rotatable=0;points=[[0,0.5],[1,0.5]];portConstraint=eastwest;rounded=0;sketch=1;fontColor=#1A1A1A;" parent="gt-Dnx5REntbQfCuhK5w-4" vertex="1">
          <mxGeometry y="68" width="165" height="26" as="geometry" />
        </mxCell>
        <mxCell id="zJStZnbewwpVjUM_0HMp-1" style="edgeStyle=orthogonalEdgeStyle;rounded=0;hachureGap=4;orthogonalLoop=1;jettySize=auto;html=1;fontFamily=Architects Daughter;fontSource=https%3A%2F%2Ffonts.googleapis.com%2Fcss%3Ffamily%3DArchitects%2BDaughter;fontSize=16;startSize=8;endSize=8;endArrow=block;endFill=0;" parent="1" source="gt-Dnx5REntbQfCuhK5w-11" target="gt-Dnx5REntbQfCuhK5w-4" edge="1">
          <mxGeometry relative="1" as="geometry" />
        </mxCell>
        <mxCell id="gt-Dnx5REntbQfCuhK5w-11" value="ConcreteComponentA" style="swimlane;fontStyle=1;align=center;verticalAlign=top;childLayout=stackLayout;horizontal=1;startSize=26;horizontalStack=0;resizeParent=1;resizeParentMax=0;resizeLast=0;collapsible=1;marginBottom=0;rounded=0;sketch=1;fillColor=#dae8fc;strokeColor=#6c8ebf;fontColor=default;" parent="1" vertex="1">
          <mxGeometry x="150" y="485.99999999999994" width="165" height="60" as="geometry" />
        </mxCell>
        <mxCell id="gt-Dnx5REntbQfCuhK5w-12" value="" style="line;strokeWidth=1;fillColor=none;align=left;verticalAlign=middle;spacingTop=-1;spacingLeft=3;spacingRight=3;rotatable=0;labelPosition=right;points=[];portConstraint=eastwest;rounded=0;sketch=1;labelBackgroundColor=#EEEEEE;strokeColor=#909090;fontColor=#1A1A1A;" parent="gt-Dnx5REntbQfCuhK5w-11" vertex="1">
          <mxGeometry y="26" width="165" height="8" as="geometry" />
        </mxCell>
        <mxCell id="gt-Dnx5REntbQfCuhK5w-14" value="+ Operation()" style="text;strokeColor=none;fillColor=none;align=left;verticalAlign=top;spacingLeft=4;spacingRight=4;overflow=hidden;rotatable=0;points=[[0,0.5],[1,0.5]];portConstraint=eastwest;rounded=0;sketch=1;fontColor=#1A1A1A;" parent="gt-Dnx5REntbQfCuhK5w-11" vertex="1">
          <mxGeometry y="34" width="165" height="26" as="geometry" />
        </mxCell>
        <mxCell id="zJStZnbewwpVjUM_0HMp-2" style="edgeStyle=orthogonalEdgeStyle;rounded=0;hachureGap=4;orthogonalLoop=1;jettySize=auto;html=1;fontFamily=Architects Daughter;fontSource=https%3A%2F%2Ffonts.googleapis.com%2Fcss%3Ffamily%3DArchitects%2BDaughter;fontSize=16;startSize=8;endSize=8;endArrow=block;endFill=0;" parent="1" source="gt-Dnx5REntbQfCuhK5w-15" target="gt-Dnx5REntbQfCuhK5w-4" edge="1">
          <mxGeometry relative="1" as="geometry" />
        </mxCell>
        <mxCell id="gt-Dnx5REntbQfCuhK5w-15" value="ConcreteComponentB" style="swimlane;fontStyle=1;align=center;verticalAlign=top;childLayout=stackLayout;horizontal=1;startSize=26;horizontalStack=0;resizeParent=1;resizeParentMax=0;resizeLast=0;collapsible=1;marginBottom=0;rounded=0;sketch=1;fillColor=#dae8fc;strokeColor=#6c8ebf;fontColor=default;" parent="1" vertex="1">
          <mxGeometry x="390" y="485.99999999999994" width="165" height="60" as="geometry" />
        </mxCell>
        <mxCell id="gt-Dnx5REntbQfCuhK5w-16" value="" style="line;strokeWidth=1;fillColor=none;align=left;verticalAlign=middle;spacingTop=-1;spacingLeft=3;spacingRight=3;rotatable=0;labelPosition=right;points=[];portConstraint=eastwest;rounded=0;sketch=1;labelBackgroundColor=#EEEEEE;strokeColor=#909090;fontColor=#1A1A1A;" parent="gt-Dnx5REntbQfCuhK5w-15" vertex="1">
          <mxGeometry y="26" width="165" height="8" as="geometry" />
        </mxCell>
        <mxCell id="gt-Dnx5REntbQfCuhK5w-17" value="+ Operation()" style="text;strokeColor=none;fillColor=none;align=left;verticalAlign=top;spacingLeft=4;spacingRight=4;overflow=hidden;rotatable=0;points=[[0,0.5],[1,0.5]];portConstraint=eastwest;rounded=0;sketch=1;fontColor=#1A1A1A;" parent="gt-Dnx5REntbQfCuhK5w-15" vertex="1">
          <mxGeometry y="34" width="165" height="26" as="geometry" />
        </mxCell>
        <mxCell id="5phRxFwSdP2C5v7AHUtI-2" value="«interface»&#xa;Hambuger" style="swimlane;fontStyle=1;align=center;verticalAlign=top;childLayout=stackLayout;horizontal=1;startSize=40;horizontalStack=0;resizeParent=1;resizeParentMax=0;resizeLast=0;collapsible=1;marginBottom=0;rounded=0;sketch=1;fillColor=#dae8fc;strokeColor=#6c8ebf;fontColor=default;" vertex="1" parent="1">
          <mxGeometry x="1394" y="48" width="165" height="100" as="geometry" />
        </mxCell>
        <mxCell id="5phRxFwSdP2C5v7AHUtI-3" value="" style="line;strokeWidth=1;fillColor=none;align=left;verticalAlign=middle;spacingTop=-1;spacingLeft=3;spacingRight=3;rotatable=0;labelPosition=right;points=[];portConstraint=eastwest;rounded=0;sketch=1;labelBackgroundColor=#EEEEEE;strokeColor=#909090;fontColor=#1A1A1A;" vertex="1" parent="5phRxFwSdP2C5v7AHUtI-2">
          <mxGeometry y="40" width="165" height="8" as="geometry" />
        </mxCell>
        <mxCell id="5phRxFwSdP2C5v7AHUtI-4" value="+ Name: string" style="text;strokeColor=none;fillColor=none;align=left;verticalAlign=top;spacingLeft=4;spacingRight=4;overflow=hidden;rotatable=0;points=[[0,0.5],[1,0.5]];portConstraint=eastwest;rounded=0;sketch=1;fontColor=#1A1A1A;" vertex="1" parent="5phRxFwSdP2C5v7AHUtI-2">
          <mxGeometry y="48" width="165" height="26" as="geometry" />
        </mxCell>
        <mxCell id="5phRxFwSdP2C5v7AHUtI-27" value="+ Price: int" style="text;strokeColor=none;fillColor=none;align=left;verticalAlign=top;spacingLeft=4;spacingRight=4;overflow=hidden;rotatable=0;points=[[0,0.5],[1,0.5]];portConstraint=eastwest;rounded=0;sketch=1;fontColor=#1A1A1A;" vertex="1" parent="5phRxFwSdP2C5v7AHUtI-2">
          <mxGeometry y="74" width="165" height="26" as="geometry" />
        </mxCell>
        <mxCell id="9jbi4o7Fz3Eqsz1vr2WY-10" style="edgeStyle=orthogonalEdgeStyle;rounded=0;orthogonalLoop=1;jettySize=auto;html=1;endArrow=block;endFill=0;" edge="1" parent="1" source="5phRxFwSdP2C5v7AHUtI-6" target="5phRxFwSdP2C5v7AHUtI-2">
          <mxGeometry relative="1" as="geometry">
            <Array as="points">
              <mxPoint x="1357" y="188" />
              <mxPoint x="1477" y="188" />
            </Array>
          </mxGeometry>
        </mxCell>
        <mxCell id="5phRxFwSdP2C5v7AHUtI-6" value="Cheeseburger" style="swimlane;fontStyle=1;align=center;verticalAlign=top;childLayout=stackLayout;horizontal=1;startSize=26;horizontalStack=0;resizeParent=1;resizeParentMax=0;resizeLast=0;collapsible=1;marginBottom=0;rounded=0;sketch=1;fillColor=#dae8fc;strokeColor=#6c8ebf;fontColor=default;" vertex="1" parent="1">
          <mxGeometry x="1274" y="218" width="165" height="86" as="geometry" />
        </mxCell>
        <mxCell id="5phRxFwSdP2C5v7AHUtI-7" value="" style="line;strokeWidth=1;fillColor=none;align=left;verticalAlign=middle;spacingTop=-1;spacingLeft=3;spacingRight=3;rotatable=0;labelPosition=right;points=[];portConstraint=eastwest;rounded=0;sketch=1;labelBackgroundColor=#EEEEEE;strokeColor=#909090;fontColor=#1A1A1A;" vertex="1" parent="5phRxFwSdP2C5v7AHUtI-6">
          <mxGeometry y="26" width="165" height="8" as="geometry" />
        </mxCell>
        <mxCell id="9jbi4o7Fz3Eqsz1vr2WY-1" value="+ Name: string" style="text;strokeColor=none;fillColor=none;align=left;verticalAlign=top;spacingLeft=4;spacingRight=4;overflow=hidden;rotatable=0;points=[[0,0.5],[1,0.5]];portConstraint=eastwest;rounded=0;sketch=1;fontColor=#1A1A1A;" vertex="1" parent="5phRxFwSdP2C5v7AHUtI-6">
          <mxGeometry y="34" width="165" height="26" as="geometry" />
        </mxCell>
        <mxCell id="9jbi4o7Fz3Eqsz1vr2WY-2" value="+ Price: int" style="text;strokeColor=none;fillColor=none;align=left;verticalAlign=top;spacingLeft=4;spacingRight=4;overflow=hidden;rotatable=0;points=[[0,0.5],[1,0.5]];portConstraint=eastwest;rounded=0;sketch=1;fontColor=#1A1A1A;" vertex="1" parent="5phRxFwSdP2C5v7AHUtI-6">
          <mxGeometry y="60" width="165" height="26" as="geometry" />
        </mxCell>
        <mxCell id="9jbi4o7Fz3Eqsz1vr2WY-11" style="edgeStyle=orthogonalEdgeStyle;rounded=0;orthogonalLoop=1;jettySize=auto;html=1;endArrow=block;endFill=0;" edge="1" parent="1" source="5phRxFwSdP2C5v7AHUtI-11" target="5phRxFwSdP2C5v7AHUtI-2">
          <mxGeometry relative="1" as="geometry">
            <Array as="points">
              <mxPoint x="1597" y="188" />
              <mxPoint x="1477" y="188" />
            </Array>
          </mxGeometry>
        </mxCell>
        <mxCell id="5phRxFwSdP2C5v7AHUtI-11" value="BigMac" style="swimlane;fontStyle=1;align=center;verticalAlign=top;childLayout=stackLayout;horizontal=1;startSize=26;horizontalStack=0;resizeParent=1;resizeParentMax=0;resizeLast=0;collapsible=1;marginBottom=0;rounded=0;sketch=1;fillColor=#dae8fc;strokeColor=#6c8ebf;fontColor=default;" vertex="1" parent="1">
          <mxGeometry x="1514" y="218" width="165" height="86" as="geometry" />
        </mxCell>
        <mxCell id="5phRxFwSdP2C5v7AHUtI-12" value="" style="line;strokeWidth=1;fillColor=none;align=left;verticalAlign=middle;spacingTop=-1;spacingLeft=3;spacingRight=3;rotatable=0;labelPosition=right;points=[];portConstraint=eastwest;rounded=0;sketch=1;labelBackgroundColor=#EEEEEE;strokeColor=#909090;fontColor=#1A1A1A;" vertex="1" parent="5phRxFwSdP2C5v7AHUtI-11">
          <mxGeometry y="26" width="165" height="8" as="geometry" />
        </mxCell>
        <mxCell id="9jbi4o7Fz3Eqsz1vr2WY-3" value="+ Name: string" style="text;strokeColor=none;fillColor=none;align=left;verticalAlign=top;spacingLeft=4;spacingRight=4;overflow=hidden;rotatable=0;points=[[0,0.5],[1,0.5]];portConstraint=eastwest;rounded=0;sketch=1;fontColor=#1A1A1A;" vertex="1" parent="5phRxFwSdP2C5v7AHUtI-11">
          <mxGeometry y="34" width="165" height="26" as="geometry" />
        </mxCell>
        <mxCell id="9jbi4o7Fz3Eqsz1vr2WY-4" value="+ Price: int" style="text;strokeColor=none;fillColor=none;align=left;verticalAlign=top;spacingLeft=4;spacingRight=4;overflow=hidden;rotatable=0;points=[[0,0.5],[1,0.5]];portConstraint=eastwest;rounded=0;sketch=1;fontColor=#1A1A1A;" vertex="1" parent="5phRxFwSdP2C5v7AHUtI-11">
          <mxGeometry y="60" width="165" height="26" as="geometry" />
        </mxCell>
        <mxCell id="9jbi4o7Fz3Eqsz1vr2WY-12" style="edgeStyle=orthogonalEdgeStyle;rounded=0;orthogonalLoop=1;jettySize=auto;html=1;endArrow=block;endFill=0;" edge="1" parent="1" source="9jbi4o7Fz3Eqsz1vr2WY-5" target="5phRxFwSdP2C5v7AHUtI-2">
          <mxGeometry relative="1" as="geometry">
            <Array as="points">
              <mxPoint x="1837" y="188" />
              <mxPoint x="1477" y="188" />
            </Array>
          </mxGeometry>
        </mxCell>
        <mxCell id="9jbi4o7Fz3Eqsz1vr2WY-5" value="BurgerDecoratorBase" style="swimlane;fontStyle=1;align=center;verticalAlign=top;childLayout=stackLayout;horizontal=1;startSize=26;horizontalStack=0;resizeParent=1;resizeParentMax=0;resizeLast=0;collapsible=1;marginBottom=0;rounded=0;sketch=1;fillColor=#dae8fc;strokeColor=#6c8ebf;fontColor=default;" vertex="1" parent="1">
          <mxGeometry x="1759" y="218" width="165" height="120" as="geometry" />
        </mxCell>
        <mxCell id="9jbi4o7Fz3Eqsz1vr2WY-6" value="" style="line;strokeWidth=1;fillColor=none;align=left;verticalAlign=middle;spacingTop=-1;spacingLeft=3;spacingRight=3;rotatable=0;labelPosition=right;points=[];portConstraint=eastwest;rounded=0;sketch=1;labelBackgroundColor=#EEEEEE;strokeColor=#909090;fontColor=#1A1A1A;" vertex="1" parent="9jbi4o7Fz3Eqsz1vr2WY-5">
          <mxGeometry y="26" width="165" height="8" as="geometry" />
        </mxCell>
        <mxCell id="ECW4TLQBNmKoQDg1gTQV-2" value="# _hamburger: Hamburger" style="text;strokeColor=none;fillColor=none;align=left;verticalAlign=top;spacingLeft=4;spacingRight=4;overflow=hidden;rotatable=0;points=[[0,0.5],[1,0.5]];portConstraint=eastwest;rounded=0;sketch=1;fontColor=#1A1A1A;" vertex="1" parent="9jbi4o7Fz3Eqsz1vr2WY-5">
          <mxGeometry y="34" width="165" height="26" as="geometry" />
        </mxCell>
        <mxCell id="ECW4TLQBNmKoQDg1gTQV-1" value="" style="line;strokeWidth=1;fillColor=none;align=left;verticalAlign=middle;spacingTop=-1;spacingLeft=3;spacingRight=3;rotatable=0;labelPosition=right;points=[];portConstraint=eastwest;rounded=0;labelBackgroundColor=#EEEEEE;strokeColor=#909090;fontColor=#1A1A1A;" vertex="1" parent="9jbi4o7Fz3Eqsz1vr2WY-5">
          <mxGeometry y="60" width="165" height="8" as="geometry" />
        </mxCell>
        <mxCell id="9jbi4o7Fz3Eqsz1vr2WY-7" value="+ Name: string" style="text;strokeColor=none;fillColor=none;align=left;verticalAlign=top;spacingLeft=4;spacingRight=4;overflow=hidden;rotatable=0;points=[[0,0.5],[1,0.5]];portConstraint=eastwest;rounded=0;sketch=1;fontColor=#1A1A1A;" vertex="1" parent="9jbi4o7Fz3Eqsz1vr2WY-5">
          <mxGeometry y="68" width="165" height="26" as="geometry" />
        </mxCell>
        <mxCell id="9jbi4o7Fz3Eqsz1vr2WY-8" value="+ Price: int" style="text;strokeColor=none;fillColor=none;align=left;verticalAlign=top;spacingLeft=4;spacingRight=4;overflow=hidden;rotatable=0;points=[[0,0.5],[1,0.5]];portConstraint=eastwest;rounded=0;sketch=1;fontColor=#1A1A1A;" vertex="1" parent="9jbi4o7Fz3Eqsz1vr2WY-5">
          <mxGeometry y="94" width="165" height="26" as="geometry" />
        </mxCell>
        <mxCell id="ECW4TLQBNmKoQDg1gTQV-17" style="edgeStyle=orthogonalEdgeStyle;rounded=0;orthogonalLoop=1;jettySize=auto;html=1;endArrow=block;endFill=0;" edge="1" parent="1" source="ECW4TLQBNmKoQDg1gTQV-3" target="9jbi4o7Fz3Eqsz1vr2WY-5">
          <mxGeometry relative="1" as="geometry">
            <Array as="points">
              <mxPoint x="1647" y="378" />
              <mxPoint x="1842" y="378" />
            </Array>
          </mxGeometry>
        </mxCell>
        <mxCell id="ECW4TLQBNmKoQDg1gTQV-3" value="BeefDecorator" style="swimlane;fontStyle=1;align=center;verticalAlign=top;childLayout=stackLayout;horizontal=1;startSize=26;horizontalStack=0;resizeParent=1;resizeParentMax=0;resizeLast=0;collapsible=1;marginBottom=0;rounded=0;sketch=1;fillColor=#dae8fc;strokeColor=#6c8ebf;fontColor=default;" vertex="1" parent="1">
          <mxGeometry x="1564" y="408" width="165" height="86" as="geometry" />
        </mxCell>
        <mxCell id="ECW4TLQBNmKoQDg1gTQV-4" value="" style="line;strokeWidth=1;fillColor=none;align=left;verticalAlign=middle;spacingTop=-1;spacingLeft=3;spacingRight=3;rotatable=0;labelPosition=right;points=[];portConstraint=eastwest;rounded=0;sketch=1;labelBackgroundColor=#EEEEEE;strokeColor=#909090;fontColor=#1A1A1A;" vertex="1" parent="ECW4TLQBNmKoQDg1gTQV-3">
          <mxGeometry y="26" width="165" height="8" as="geometry" />
        </mxCell>
        <mxCell id="ECW4TLQBNmKoQDg1gTQV-5" value="+ Name: string" style="text;strokeColor=none;fillColor=none;align=left;verticalAlign=top;spacingLeft=4;spacingRight=4;overflow=hidden;rotatable=0;points=[[0,0.5],[1,0.5]];portConstraint=eastwest;rounded=0;sketch=1;fontColor=#1A1A1A;" vertex="1" parent="ECW4TLQBNmKoQDg1gTQV-3">
          <mxGeometry y="34" width="165" height="26" as="geometry" />
        </mxCell>
        <mxCell id="ECW4TLQBNmKoQDg1gTQV-6" value="+ Price: int" style="text;strokeColor=none;fillColor=none;align=left;verticalAlign=top;spacingLeft=4;spacingRight=4;overflow=hidden;rotatable=0;points=[[0,0.5],[1,0.5]];portConstraint=eastwest;rounded=0;sketch=1;fontColor=#1A1A1A;" vertex="1" parent="ECW4TLQBNmKoQDg1gTQV-3">
          <mxGeometry y="60" width="165" height="26" as="geometry" />
        </mxCell>
        <mxCell id="ECW4TLQBNmKoQDg1gTQV-15" style="edgeStyle=orthogonalEdgeStyle;rounded=0;orthogonalLoop=1;jettySize=auto;html=1;endArrow=block;endFill=0;" edge="1" parent="1" source="ECW4TLQBNmKoQDg1gTQV-7" target="9jbi4o7Fz3Eqsz1vr2WY-5">
          <mxGeometry relative="1" as="geometry" />
        </mxCell>
        <mxCell id="ECW4TLQBNmKoQDg1gTQV-7" value="LettuceDecorator" style="swimlane;fontStyle=1;align=center;verticalAlign=top;childLayout=stackLayout;horizontal=1;startSize=26;horizontalStack=0;resizeParent=1;resizeParentMax=0;resizeLast=0;collapsible=1;marginBottom=0;rounded=0;sketch=1;fillColor=#dae8fc;strokeColor=#6c8ebf;fontColor=default;" vertex="1" parent="1">
          <mxGeometry x="1759" y="408" width="165" height="86" as="geometry" />
        </mxCell>
        <mxCell id="ECW4TLQBNmKoQDg1gTQV-8" value="" style="line;strokeWidth=1;fillColor=none;align=left;verticalAlign=middle;spacingTop=-1;spacingLeft=3;spacingRight=3;rotatable=0;labelPosition=right;points=[];portConstraint=eastwest;rounded=0;sketch=1;labelBackgroundColor=#EEEEEE;strokeColor=#909090;fontColor=#1A1A1A;" vertex="1" parent="ECW4TLQBNmKoQDg1gTQV-7">
          <mxGeometry y="26" width="165" height="8" as="geometry" />
        </mxCell>
        <mxCell id="ECW4TLQBNmKoQDg1gTQV-9" value="+ Name: string" style="text;strokeColor=none;fillColor=none;align=left;verticalAlign=top;spacingLeft=4;spacingRight=4;overflow=hidden;rotatable=0;points=[[0,0.5],[1,0.5]];portConstraint=eastwest;rounded=0;sketch=1;fontColor=#1A1A1A;" vertex="1" parent="ECW4TLQBNmKoQDg1gTQV-7">
          <mxGeometry y="34" width="165" height="26" as="geometry" />
        </mxCell>
        <mxCell id="ECW4TLQBNmKoQDg1gTQV-10" value="+ Price: int" style="text;strokeColor=none;fillColor=none;align=left;verticalAlign=top;spacingLeft=4;spacingRight=4;overflow=hidden;rotatable=0;points=[[0,0.5],[1,0.5]];portConstraint=eastwest;rounded=0;sketch=1;fontColor=#1A1A1A;" vertex="1" parent="ECW4TLQBNmKoQDg1gTQV-7">
          <mxGeometry y="60" width="165" height="26" as="geometry" />
        </mxCell>
        <mxCell id="ECW4TLQBNmKoQDg1gTQV-16" style="edgeStyle=orthogonalEdgeStyle;rounded=0;orthogonalLoop=1;jettySize=auto;html=1;endArrow=block;endFill=0;" edge="1" parent="1" source="ECW4TLQBNmKoQDg1gTQV-11" target="9jbi4o7Fz3Eqsz1vr2WY-5">
          <mxGeometry relative="1" as="geometry">
            <Array as="points">
              <mxPoint x="2042" y="378" />
              <mxPoint x="1842" y="378" />
            </Array>
          </mxGeometry>
        </mxCell>
        <mxCell id="ECW4TLQBNmKoQDg1gTQV-11" value="PicklesDecorator" style="swimlane;fontStyle=1;align=center;verticalAlign=top;childLayout=stackLayout;horizontal=1;startSize=26;horizontalStack=0;resizeParent=1;resizeParentMax=0;resizeLast=0;collapsible=1;marginBottom=0;rounded=0;sketch=1;fillColor=#dae8fc;strokeColor=#6c8ebf;fontColor=default;" vertex="1" parent="1">
          <mxGeometry x="1959" y="408" width="165" height="86" as="geometry" />
        </mxCell>
        <mxCell id="ECW4TLQBNmKoQDg1gTQV-12" value="" style="line;strokeWidth=1;fillColor=none;align=left;verticalAlign=middle;spacingTop=-1;spacingLeft=3;spacingRight=3;rotatable=0;labelPosition=right;points=[];portConstraint=eastwest;rounded=0;sketch=1;labelBackgroundColor=#EEEEEE;strokeColor=#909090;fontColor=#1A1A1A;" vertex="1" parent="ECW4TLQBNmKoQDg1gTQV-11">
          <mxGeometry y="26" width="165" height="8" as="geometry" />
        </mxCell>
        <mxCell id="ECW4TLQBNmKoQDg1gTQV-13" value="+ Name: string" style="text;strokeColor=none;fillColor=none;align=left;verticalAlign=top;spacingLeft=4;spacingRight=4;overflow=hidden;rotatable=0;points=[[0,0.5],[1,0.5]];portConstraint=eastwest;rounded=0;sketch=1;fontColor=#1A1A1A;" vertex="1" parent="ECW4TLQBNmKoQDg1gTQV-11">
          <mxGeometry y="34" width="165" height="26" as="geometry" />
        </mxCell>
        <mxCell id="ECW4TLQBNmKoQDg1gTQV-14" value="+ Price: int" style="text;strokeColor=none;fillColor=none;align=left;verticalAlign=top;spacingLeft=4;spacingRight=4;overflow=hidden;rotatable=0;points=[[0,0.5],[1,0.5]];portConstraint=eastwest;rounded=0;sketch=1;fontColor=#1A1A1A;" vertex="1" parent="ECW4TLQBNmKoQDg1gTQV-11">
          <mxGeometry y="60" width="165" height="26" as="geometry" />
        </mxCell>
        <mxCell id="DrQ8zZl-GfcJ0ZKOfmu1-1" style="edgeStyle=orthogonalEdgeStyle;rounded=0;hachureGap=4;orthogonalLoop=1;jettySize=auto;html=1;fontFamily=Architects Daughter;fontSource=https%3A%2F%2Ffonts.googleapis.com%2Fcss%3Ffamily%3DArchitects%2BDaughter;fontSize=16;startSize=8;endSize=8;startArrow=diamondThin;startFill=0;endArrow=open;endFill=0;" edge="1" parent="1" source="9jbi4o7Fz3Eqsz1vr2WY-5" target="5phRxFwSdP2C5v7AHUtI-2">
          <mxGeometry relative="1" as="geometry">
            <mxPoint x="1984" y="63" as="targetPoint" />
            <Array as="points">
              <mxPoint x="1954" y="278" />
              <mxPoint x="1954" y="108" />
            </Array>
            <mxPoint x="2102" y="200" as="sourcePoint" />
          </mxGeometry>
        </mxCell>
        <mxCell id="XBTDg7uVplklyythVpEF-2" style="edgeStyle=orthogonalEdgeStyle;rounded=0;orthogonalLoop=1;jettySize=auto;html=1;endArrow=open;endFill=0;" edge="1" parent="1" source="XBTDg7uVplklyythVpEF-1" target="rLRFaC7Z4CtTyHRnIzG0-1">
          <mxGeometry relative="1" as="geometry" />
        </mxCell>
        <mxCell id="XBTDg7uVplklyythVpEF-1" value="&lt;b&gt;Client&lt;/b&gt;" style="html=1;rounded=0;sketch=1;fillColor=#dae8fc;strokeColor=#6c8ebf;" vertex="1" parent="1">
          <mxGeometry x="167.5" y="56.66" width="110" height="50" as="geometry" />
        </mxCell>
        <mxCell id="XBTDg7uVplklyythVpEF-4" style="edgeStyle=orthogonalEdgeStyle;rounded=0;orthogonalLoop=1;jettySize=auto;html=1;endArrow=open;endFill=0;" edge="1" parent="1" source="XBTDg7uVplklyythVpEF-3" target="5phRxFwSdP2C5v7AHUtI-2">
          <mxGeometry relative="1" as="geometry" />
        </mxCell>
        <mxCell id="XBTDg7uVplklyythVpEF-3" value="&lt;b&gt;Client&lt;/b&gt;" style="html=1;rounded=0;sketch=1;fillColor=#dae8fc;strokeColor=#6c8ebf;" vertex="1" parent="1">
          <mxGeometry x="1184" y="73" width="110" height="50" as="geometry" />
        </mxCell>
        <mxCell id="Pp7WCE5edUzExKPesPUn-1" value="_component.Operation()&lt;br&gt;..." style="shape=note;size=15;align=left;spacingLeft=10;html=1;whiteSpace=wrap;rounded=0;sketch=1;strokeColor=#d6b656;fillColor=#fff2cc;" vertex="1" parent="1">
          <mxGeometry x="210" y="566" width="190" height="40" as="geometry" />
        </mxCell>
        <mxCell id="Pp7WCE5edUzExKPesPUn-2" value="" style="edgeStyle=none;endArrow=none;exitX=0.4;exitY=0;dashed=1;html=1;rounded=1;sketch=1;fontColor=#1A1A1A;strokeColor=#d6b656;curved=0;fillColor=#fff2cc;" edge="1" parent="1" source="Pp7WCE5edUzExKPesPUn-1">
          <mxGeometry x="1" relative="1" as="geometry">
            <mxPoint x="230" y="536" as="targetPoint" />
          </mxGeometry>
        </mxCell>
        <mxCell id="SH4bGt_SRd1SDePsew1P-1" value="a = new&amp;nbsp;ConcreteComponent();&lt;br&gt;b = new&amp;nbsp;ConcreteComponentA(a);&lt;br&gt;c = new ConcreteComponentB(b);&lt;br&gt;c.Operation();" style="shape=note;size=15;align=left;spacingLeft=10;html=1;whiteSpace=wrap;rounded=0;sketch=1;strokeColor=#d6b656;fillColor=#fff2cc;" vertex="1" parent="1">
          <mxGeometry x="330" y="40" width="240" height="83.32" as="geometry" />
        </mxCell>
        <mxCell id="SH4bGt_SRd1SDePsew1P-2" value="" style="edgeStyle=none;endArrow=none;exitX=0;exitY=0.5;dashed=1;html=1;rounded=1;sketch=1;fontColor=#1A1A1A;strokeColor=#d6b656;curved=0;fillColor=#fff2cc;exitDx=0;exitDy=0;exitPerimeter=0;" edge="1" parent="1" source="SH4bGt_SRd1SDePsew1P-1" target="XBTDg7uVplklyythVpEF-1">
          <mxGeometry x="1" relative="1" as="geometry">
            <mxPoint x="290" y="59.97204747774489" as="targetPoint" />
          </mxGeometry>
        </mxCell>
      </root>
    </mxGraphModel>
  </diagram>
</mxfile>
